# xmcd CD database file
#
# Track frame offsets:
#	150
#	25300
#	54535
#	81677
#	93185
#	118877
#	137802
#	159687
#	187300
#	216512
#	234805
#
# Disc length: 3536 seconds
#
# Revision: 0
# Processed by: cddbd v1.5.2PL0 Copyright (c) Steve Scherf et al.
# Submitted via: CDex 1.70beta2
#
DISCID=a30dce0b
DTITLE=中村健吾 - Say Hallo To Say Goodbye
DYEAR=2001
DGENRE=Jazz
TTITLE0=Walkin' Together
TTITLE1=Serenade
TTITLE2=Field of Dreams
TTITLE3=Hackensack
TTITLE4=Sugar Hill
TTITLE5=Everything Happens to Me
TTITLE6=Say Hello to Say Goodbye
TTITLE7=For Friends
TTITLE8=Where Crisis Speaks
TTITLE9=Hope
TTITLE10=A Tribute to N.J.P.
EXTD=YEAR: 2001
EXTT0=
EXTT1=
EXTT2=
EXTT3=
EXTT4=
EXTT5=
EXTT6=
EXTT7=
EXTT8=
EXTT9=
EXTT10=
PLAYORDER=
